<?xml version="1.0" encoding="utf-8"?>
<!-- Svg Vector Icons : http://www.onlinewebfonts.com/icon -->
<!DOCTYPE svg PUBLIC "-//W3C//DTD SVG 1.1//EN" "http://www.w3.org/Graphics/SVG/1.1/DTD/svg11.dtd">
<svg version="1.1" xmlns="http://www.w3.org/2000/svg" xmlns:xlink="http://www.w3.org/1999/xlink" x="0px" y="0px" viewBox="0 0 1000 1000" enable-background="new 0 0 1000 1000" xml:space="preserve">
<metadata> Svg Vector Icons : http://www.onlinewebfonts.com/icon </metadata>
<g><g transform="translate(0.000000,449.000000) scale(0.100000,-0.100000)"><path d="M1398.8,4354.1c-35-17.5-332-292.7-657.5-616c-548.3-543.9-596.4-596.4-618.2-690.3c-13.1-56.8-19.7-115.8-15.3-131.1c4.4-15.3,15.3-56.8,24-93.9c10.9-50.2,393.2-445.6,1540.1-1594.7C2519.4,378.3,3209.7-329.5,3220.6-362.3c37.1-96.1,28.4-227.2-17.5-316.8c-24-43.7-716.5-753.7-1548.8-1585.9C-3.7-3920.8,66.2-3840,120.8-4049.7c21.8-85.2,96.1-166,629.1-701.2c672.8-670.6,681.6-677.2,893.5-627c100.5,24,181.3,100.5,1634,1551c845.4,843.2,1557.5,1535.7,1590.3,1546.6c78.6,30.6,192.3,30.6,270.9,2.2c34.9-13.1,740.5-701.2,1590.3-1551c1699.5-1695.2,1601.2-1612.2,1835-1548.8c72.1,19.7,187.9,122.3,672.8,605.1c323.3,321.1,600.7,609.5,618.2,642.3c37.1,69.9,41.5,262.1,6.6,329.8c-13.1,26.2-705.6,731.8-1540.1,1566.3C7482.6-1393.4,6796.7-687.8,6785.8-655c-30.6,78.7-30.6,214.1-2.2,292.7c13.1,34.9,701.2,738.4,1551,1590.3c1149,1151.2,1529.2,1544.4,1540.1,1594.7c8.8,37.1,19.7,78.7,24,96.1c4.4,15.3-2.2,69.9-15.3,120.2c-19.7,76.5-111.4,179.1-616,688.1c-327.7,327.7-624.8,609.5-664.1,627c-93.9,41.5-211.9,39.3-297.1-4.4c-39.3-19.7-753.7-716.5-1588.1-1548.8C5031.6,1118.8,5127.7,1199.6,4894,1263c-74.3,19.6-303.6,238.1-1616.5,1548.8C2432,3655,1719.9,4349.7,1687.1,4360.6C1604.1,4393.4,1479.6,4389,1398.8,4354.1z"/></g></g>
</svg>